<?xml version="1.0" encoding="utf-8"?>
<!-- Generator: Adobe Illustrator 26.3.1, SVG Export Plug-In . SVG Version: 6.00 Build 0)  -->
<svg version="1.1" id="Ebene_1" xmlns="http://www.w3.org/2000/svg" xmlns:xlink="http://www.w3.org/1999/xlink" x="0px" y="0px"
	 viewBox="0 0 200 40" style="enable-background:new 0 0 200 40;" xml:space="preserve">
<style type="text/css">
	.st0{fill:url(#SVGID_1_);stroke:#FFFFFF;stroke-width:0.5;stroke-miterlimit:10;}
	
		.st1{fill:url(#SVGID_00000165233607005120288870000010724750271141414832_);stroke:#FFFFFF;stroke-width:0.5;stroke-miterlimit:10;}
	
		.st2{fill:url(#SVGID_00000021088499127911534730000017802530619595056810_);stroke:#FFFFFF;stroke-width:0.5;stroke-miterlimit:10;}
	
		.st3{fill:url(#SVGID_00000062896043043472577850000012992572695594728343_);stroke:#FFFFFF;stroke-width:0.5;stroke-miterlimit:10;}
	
		.st4{fill:url(#SVGID_00000009548621194629121470000012647025026801950346_);stroke:#FFFFFF;stroke-width:0.5;stroke-miterlimit:10;}
	
		.st5{fill:url(#SVGID_00000065791466168711250850000012734533867762681001_);stroke:#FFFFFF;stroke-width:0.5;stroke-miterlimit:10;}
</style>
<g>
	<path d="M39.3,20.2c0-6.2,4.8-10.7,11.2-10.7c3.6,0,6.6,1.3,8.5,3.7L56,16c-1.3-1.6-3.2-2.4-5.2-2.4c-3.9,0-6.6,2.7-6.6,6.6
		s2.8,6.6,6.7,6.6c2,0,3.9-0.9,5.2-2.4l3.1,2.8c-2,2.4-4.9,3.7-8.6,3.7C44.1,30.9,39.3,26.4,39.3,20.2z"/>
	<path d="M76.2,26.1h-9.6l-1.8,4.4h-4.9l9.2-20.7h4.7l9.3,20.7h-5L76.2,26.1z M74.6,22.4l-3.3-7.9l-3.3,7.9
		C68.1,22.4,74.6,22.4,74.6,22.4z"/>
	<path d="M89,13.7h-6.6V9.8h18.1v3.9h-6.7v16.8H89V13.7z"/>
	<path d="M122.6,9.8v20.7h-4.8V22h-9.4v8.5h-4.8V9.8h4.8V18h9.4V9.8H122.6z"/>
	<path d="M141.7,26.1h-9.6l-1.8,4.4h-4.9l9.2-20.7h4.8l9.3,20.7h-5L141.7,26.1z M140.2,22.4l-3.3-7.9l-3.3,7.9H140.2z"/>
	<path d="M165.1,19.8h4.4v8.4c-2.3,1.7-5.4,2.6-8.4,2.6c-6.5,0-11.3-4.5-11.3-10.7s4.8-10.7,11.4-10.7c3.6,0,6.7,1.2,8.7,3.6
		l-3.1,2.8c-1.4-1.5-3.3-2.4-5.4-2.3c-4,0-6.8,2.7-6.8,6.6c0,3.9,2.8,6.6,6.7,6.6c1.3,0,2.6-0.3,3.7-0.9V19.8L165.1,19.8z"/>
	<path d="M173.2,20.2c0-6.2,4.8-10.7,11.3-10.7c6.5,0,11.3,4.5,11.3,10.7s-4.8,10.7-11.3,10.7S173.2,26.3,173.2,20.2z M191,20.2
		c0-3.9-2.8-6.6-6.5-6.6s-6.5,2.7-6.5,6.6s2.8,6.6,6.5,6.6S191,24.1,191,20.2z"/>
</g>
<linearGradient id="SVGID_1_" gradientUnits="userSpaceOnUse" x1="5.8214" y1="388.3017" x2="30.1002" y2="388.3017" gradientTransform="matrix(1 0 0 1 0 -378.8661)">
	<stop  offset="0" style="stop-color:#4DAA9D"/>
	<stop  offset="1" style="stop-color:#61D4C2"/>
</linearGradient>
<path class="st0" d="M30.1,9.8L30.1,9.8l-5.1,3c0,0,0,0,0,0l-5.1-2.9c0,0,0,0,0,0L10.9,15l0,0c0.1,0-4.9-2.9-5-3l0,0
	c0.4-0.3,14-8.2,14-8.2l0,0C19.8,3.9,27.5,8.3,30.1,9.8"/>
<linearGradient id="SVGID_00000158742011258394026920000012786791052296063932_" gradientUnits="userSpaceOnUse" x1="24.9906" y1="552.236" x2="30.1387" y2="552.236" gradientTransform="matrix(1 0 0 1 0 -538)">
	<stop  offset="0" style="stop-color:#4DAA9D"/>
	<stop  offset="1" style="stop-color:#61D4C2"/>
</linearGradient>
<path style="fill:url(#SVGID_00000158742011258394026920000012786791052296063932_);stroke:#FFFFFF;stroke-width:0.5;stroke-miterlimit:10;" d="
	M25.1,18.7L25.1,18.7l5-2.9v-6c0,0,0,0,0,0L25,12.7l0,0L25.1,18.7"/>
<linearGradient id="SVGID_00000137111124265056307950000008282016223890357434_" gradientUnits="userSpaceOnUse" x1="19.8705" y1="409.3911" x2="30.1371" y2="409.3911" gradientTransform="matrix(1 0 0 1 0 -378.8661)">
	<stop  offset="0" style="stop-color:#4DAA9D"/>
	<stop  offset="1" style="stop-color:#61D4C2"/>
</linearGradient>
<path style="fill:url(#SVGID_00000137111124265056307950000008282016223890357434_);stroke:#FFFFFF;stroke-width:0.5;stroke-miterlimit:10;" d="
	M30.1,24.7L30.1,24.7l-10.3,5.9l0,0v5.9l0,0l10.3-5.9V24.7"/>
<linearGradient id="SVGID_00000013190952930913687070000001516268648757956740_" gradientUnits="userSpaceOnUse" x1="5.8214" y1="403.0935" x2="19.8484" y2="403.0935" gradientTransform="matrix(1 0 0 1 0 -378.8661)">
	<stop  offset="0" style="stop-color:#4DAA9D"/>
	<stop  offset="1" style="stop-color:#61D4C2"/>
</linearGradient>
<path style="fill:url(#SVGID_00000013190952930913687070000001516268648757956740_);stroke:#FFFFFF;stroke-width:0.5;stroke-miterlimit:10;" d="
	M5.8,12.1L5.8,12.1v16.4l14,7.9"/>
<linearGradient id="SVGID_00000111874013421666649600000007892135341023426688_" gradientUnits="userSpaceOnUse" x1="5.8214" y1="403.0935" x2="19.881" y2="403.0935" gradientTransform="matrix(1 0 0 1 0 -378.8661)">
	<stop  offset="0" style="stop-color:#4DAA9D"/>
	<stop  offset="1" style="stop-color:#61D4C2"/>
</linearGradient>
<path style="fill:url(#SVGID_00000111874013421666649600000007892135341023426688_);stroke:#FFFFFF;stroke-width:0.5;stroke-miterlimit:10;" d="
	M19.8,36.4l0-5.9l0,0l-8.9-5.2l0,0V15l0,0c0,0-4.8-2.8-5.1-3"/>
<linearGradient id="SVGID_00000042694611877480659350000010041945352130257565_" gradientUnits="userSpaceOnUse" x1="10.931" y1="399.0254" x2="30.1328" y2="399.0254" gradientTransform="matrix(1 0 0 1 0 -378.8661)">
	<stop  offset="0" style="stop-color:#009688"/>
	<stop  offset="1" style="stop-color:#61D4C2"/>
</linearGradient>
<polygon style="fill:url(#SVGID_00000042694611877480659350000010041945352130257565_);stroke:#FFFFFF;stroke-width:0.5;stroke-miterlimit:10;" points="
	19.9,15.7 25.1,18.7 25.1,18.7 25,12.7 25,12.7 19.8,9.8 19.8,9.8 10.9,15 10.9,15 10.9,25.3 10.9,25.3 19.9,30.5 19.9,30.5 
	30.1,24.7 30.1,24.7 25,21.6 19.9,24.7 19.9,24.7 16,22.4 16,22.4 16,17.9 16,17.9 "/>
</svg>
